<svg width="27" height="27" viewBox="0 0 27 27" fill="none" xmlns="http://www.w3.org/2000/svg">
<path fill-rule="evenodd" clip-rule="evenodd" d="M13.5 27C20.9558 27 27 20.9558 27 13.5C27 6.04416 20.9558 0 13.5 0C6.04416 0 0 6.04416 0 13.5C0 20.9558 6.04416 27 13.5 27ZM13.995 14.1633V19.7063H11.7332V14.1593H9.85319V11.989H11.7291V10.3963C11.7291 8.54389 12.875 7.53484 14.5441 7.53484C15.1068 7.53267 15.6692 7.56134 16.2288 7.62073V9.55564H15.0788C14.1712 9.55564 13.995 9.98442 13.995 10.6107V11.993H16.1639L15.8832 14.1633H13.995Z" fill="black"/>
</svg>
