<svg width="27" height="27" viewBox="0 0 27 27" fill="none" xmlns="http://www.w3.org/2000/svg">
<path fill-rule="evenodd" clip-rule="evenodd" d="M13.5 27C20.9558 27 27 20.9558 27 13.5C27 6.04416 20.9558 0 13.5 0C6.04416 0 0 6.04416 0 13.5C0 20.9558 6.04416 27 13.5 27ZM18.5651 9.80839C19.1117 9.7429 19.6316 9.598 20.1156 9.38355L20.1144 9.38529C19.7521 9.92715 19.2962 10.4001 18.768 10.7821C18.7732 10.898 18.7761 11.0151 18.7761 11.131C18.7761 14.6991 16.0607 18.8131 11.0935 18.8131C9.62618 18.8147 8.18943 18.3935 6.95518 17.6C7.1691 17.6251 7.38431 17.6377 7.5997 17.6376C8.81563 17.6394 9.99683 17.2321 10.9533 16.4813C10.3898 16.471 9.84376 16.2847 9.39145 15.9486C8.93915 15.6125 8.60327 15.1434 8.43084 14.6069C8.8356 14.684 9.25259 14.6682 9.65032 14.5605C9.03918 14.437 8.48958 14.1059 8.09478 13.6233C7.69999 13.1407 7.48431 12.5364 7.48436 11.9129V11.8781C7.85928 12.0866 8.27857 12.2024 8.70731 12.2161C8.33762 11.9692 8.03459 11.6348 7.82509 11.2427C7.6156 10.8507 7.50612 10.4129 7.50638 9.96836C7.50638 9.47454 7.63969 9.01086 7.87153 8.61094C8.54957 9.44508 9.39543 10.1273 10.3542 10.6134C11.313 11.0995 12.3632 11.3785 13.4368 11.4324C13.301 10.8533 13.3601 10.2454 13.605 9.70331C13.85 9.16119 14.2671 8.7151 14.7915 8.43431C15.316 8.15351 15.9185 8.05373 16.5054 8.15043C17.0924 8.24714 17.6311 8.53493 18.0377 8.96913C18.6424 8.85043 19.2223 8.6289 19.7522 8.31419C19.551 8.93984 19.1291 9.47095 18.5651 9.80839Z" fill="black"/>
</svg>
