<svg width="24" height="25" viewBox="0 0 24 25" fill="none" xmlns="http://www.w3.org/2000/svg">
<path d="M0.471562 11.7522C0.471 13.7753 1.002 15.7508 2.01169 17.492L0.375 23.4411L6.4905 21.8448C8.18196 22.7615 10.0771 23.2418 12.003 23.242H12.0081C18.3657 23.242 23.541 18.0916 23.5437 11.7612C23.5449 8.69368 22.3461 5.80916 20.1679 3.63901C17.9901 1.46905 15.0937 0.273373 12.0076 0.271973C5.64919 0.271973 0.474281 5.42202 0.471656 11.7522" fill="url(#paint0_linear_896_21176)"/>
<path d="M0.100313 12.1639C0.0996563 14.2599 0.649687 16.306 1.69537 18.1096L0 24.272L6.33478 22.6184C8.08022 23.5658 10.0454 24.0653 12.0451 24.0661H12.0502C18.636 24.0661 23.9972 18.7305 24 12.1735C24.0011 8.9957 22.7591 6.00749 20.5031 3.7596C18.2468 1.51198 15.2468 0.273279 12.0502 0.271973C5.46337 0.271973 0.103031 5.60682 0.100406 12.1639H0.100313ZM3.87281 17.7989L3.63628 17.4251C2.64197 15.8512 2.11716 14.0324 2.11791 12.1647C2.12006 6.71458 6.57544 2.28047 12.054 2.28047C14.7071 2.28159 17.2005 3.31123 19.0759 5.17936C20.9512 7.04768 21.9831 9.53124 21.9824 12.1727C21.98 17.6228 17.5245 22.0575 12.0502 22.0575H12.0463C10.2638 22.0566 8.51569 21.58 6.99113 20.6794L6.62831 20.4652L2.86912 21.4464L3.87281 17.7989V17.7989Z" fill="url(#paint1_linear_896_21176)"/>
<path d="M9.06383 7.19191C8.84014 6.69697 8.60473 6.68698 8.39202 6.6783C8.21783 6.67084 8.0187 6.6714 7.81977 6.6714C7.62064 6.6714 7.29711 6.74597 7.02364 7.04323C6.74989 7.34077 5.97852 8.0598 5.97852 9.52222C5.97852 10.9847 7.04848 12.3981 7.19764 12.5966C7.34698 12.7947 9.26323 15.8918 12.2981 17.0833C14.8204 18.0735 15.3336 17.8765 15.881 17.8269C16.4285 17.7774 17.6477 17.108 17.8964 16.4139C18.1453 15.7199 18.1453 15.125 18.0707 15.0007C17.996 14.8769 17.7969 14.8025 17.4983 14.6539C17.1996 14.5052 15.7317 13.7861 15.458 13.6869C15.1843 13.5878 14.9853 13.5383 14.7861 13.8359C14.587 14.1331 14.0152 14.8025 13.841 15.0007C13.6669 15.1994 13.4926 15.2241 13.1941 15.0755C12.8953 14.9263 11.9337 14.6128 10.7929 13.6003C9.90523 12.8123 9.30598 11.8394 9.1318 11.5417C8.95761 11.2446 9.11314 11.0835 9.26286 10.9354C9.39702 10.8022 9.56155 10.5883 9.71098 10.4147C9.85986 10.2412 9.90955 10.1173 10.0091 9.91906C10.1088 9.72064 10.0589 9.54704 9.98436 9.39837C9.90955 9.24969 9.32933 7.77971 9.06383 7.192" fill="white"/>
<defs>
<linearGradient id="paint0_linear_896_21176" x1="11.9594" y1="23.4411" x2="11.9594" y2="0.271973" gradientUnits="userSpaceOnUse">
<stop stop-color="#1FAF38"/>
<stop offset="1" stop-color="#60D669"/>
</linearGradient>
<linearGradient id="paint1_linear_896_21176" x1="12" y1="24.272" x2="12" y2="0.271973" gradientUnits="userSpaceOnUse">
<stop stop-color="#F9F9F9"/>
<stop offset="1" stop-color="white"/>
</linearGradient>
</defs>
</svg>
