<svg width="27" height="27" viewBox="0 0 27 27" fill="none" xmlns="http://www.w3.org/2000/svg">
<path fill-rule="evenodd" clip-rule="evenodd" d="M13.5 27C20.9558 27 27 20.9558 27 13.5C27 6.04416 20.9558 0 13.5 0C6.04416 0 0 6.04416 0 13.5C0 20.9558 6.04416 27 13.5 27ZM19.5526 9.41412C19.7644 9.61486 19.9178 9.86924 19.9966 10.1502V10.1496C20.2043 11.2025 20.3014 12.2742 20.2864 13.3473C20.2932 14.4158 20.196 15.4825 19.996 16.5322C19.9175 16.8132 19.7643 17.0676 19.5526 17.2683C19.3348 17.4752 19.0679 17.6232 18.7771 17.6983C16.9679 17.9005 15.148 17.9915 13.3277 17.9707C13.3277 17.9707 8.98821 17.9708 7.88523 17.6844C7.5908 17.6062 7.32302 17.4584 7.10799 17.2538C6.89296 17.0492 6.73821 16.7959 6.6588 16.5183C6.46348 15.4669 6.369 14.401 6.37596 13.334C6.36917 12.2659 6.46388 11.1997 6.6588 10.1496C6.73994 9.87084 6.89528 9.6164 7.10973 9.41006C7.32799 9.20157 7.59438 9.05025 7.88523 8.96957C9.69209 8.76744 11.5097 8.67647 13.3277 8.69715C13.3277 8.69715 17.6886 8.69715 18.7771 8.98406C19.0679 9.05919 19.3348 9.2072 19.5526 9.41412ZM11.9413 11.35V15.3185L15.5696 13.3345L11.9413 11.35Z" fill="black"/>
</svg>
